<svg xmlns="http://www.w3.org/2000/svg" viewBox="0 0 64 64" width="64" height="64">
  <defs>
    <radialGradient id="g" cx="40%" cy="35%" r="60%">
      <stop offset="0%" stop-color="#fff6f0"/>
      <stop offset="55%" stop-color="#ffc4b0"/>
      <stop offset="100%" stop-color="#e8897a"/>
    </radialGradient>
  </defs>
  <!-- Visual fluff only — physics still uses circle radius -->
  <path fill="url(#g)" stroke="#ffe8de" stroke-width="1"
    d="M32 6
       C40 6 46 10 48 16
       C54 16 58 22 58 28
       C60 34 58 42 52 46
       C52 54 44 58 36 58
       C30 62 22 58 20 52
       C12 52 8 44 10 36
       C6 30 8 20 14 18
       C16 10 24 6 32 6 Z"/>
  <circle cx="24" cy="24" r="5" fill="#ffffff" opacity="0.55"/>
  <circle cx="36" cy="20" r="3.5" fill="#ffffff" opacity="0.4"/>
</svg>
